# xmcd
#
# Track frame offsets:
#	182
#	16502
#	32867
#	48150
#	83605
#	109205
#	148925
#	178507
#
# Disc length: 2725 seconds
#
# Revision: 4
# Processed by: cddbd v1.5.2PL0 Copyright (c) Steve Scherf et al.
# Submitted via: EasyCDDAExtractor 2010.6.0.0
#
DISCID=5c0aa308
DTITLE=Leann Rimes - Can't Fight The Moonlight
DYEAR=2000
DGENRE=Dance
TTITLE0=Can't Fight The Moonlight (Graham Stack Radio Edit)
TTITLE1=Can't Fight The Moonlight (Thunderpuss Radio Edit)
TTITLE2=Can't Fight The Moonlight (Plasmic Honey Radio Edit)
TTITLE3=Can't Fight The Moonlight (Almighty Mix)
TTITLE4=Can't Fight The Moonlight (Sharp Club Vocal Edit)
TTITLE5=Can't Fight The Moonlight (Thunderpuss Club Mix)
TTITLE6=Can't Fight The Moonlight (Plasmic Honey Club Mix Edit)
TTITLE7=Can't Fight The Moonlight (Sharp Pistol Dub)
EXTD=
EXTT0=Can't Fight The Moonlight (Graham Stack Radio Edit)
EXTT1=Can't Fight The Moonlight (Thunderpuss Radio Edit)
EXTT2=Can't Fight The Moonlight (Plasmic Honey Radio Edit)
EXTT3=Can't Fight The Moonlight (Almighty Mix)
EXTT4=Can't Fight The Moonlight (Sharp Club Vocal Edit)
EXTT5=Can't Fight The Moonlight (Thunderpuss Club Mix)
EXTT6=Can't Fight The Moonlight (Plasmic Honey Club Mix Edit)
EXTT7=
PLAYORDER=
